HIERARCHY
ROOT SpineBase
{
  OFFSET 0.000000 0.000000 0.000000
  CHANNELS 6 Xposition Yposition Zposition Zrotation Xrotation Yrotation
  JOINT SpineMid
  {
    OFFSET 0.000000 29.910244 0.000000
    CHANNELS 3 Zrotation Xrotation Yrotation
    JOINT SpineShoulder
    {
      OFFSET -0.360006 22.277443 -0.596254
      CHANNELS 3 Zrotation Xrotation Yrotation
      JOINT Neck
      {
        OFFSET -0.251968 7.347211 -0.457576
        CHANNELS 3 Zrotation Xrotation Yrotation
        JOINT Head
        {
          OFFSET -0.893081 10.575814 3.785622
          CHANNELS 3 Zrotation Xrotation Yrotation
          End Site
          {
            OFFSET 0 0 0
          }
        }
      }
      JOINT ShoulderLeft
      {
        OFFSET -4.343067 -5.090802 11.557236
        CHANNELS 3 Zrotation Xrotation Yrotation
        JOINT ElbowLeft
        {
          OFFSET -3.969332 -15.320088 -19.308527
          CHANNELS 3 Zrotation Xrotation Yrotation
          JOINT WristLeft
          {
            OFFSET -2.176424 -23.556602 -2.095499
            CHANNELS 3 Zrotation Xrotation Yrotation
            JOINT HandLeft
            {
              OFFSET -1.609064 -4.391986 0.913234
              CHANNELS 3 Zrotation Xrotation Yrotation
              JOINT HandTipLeft
              {
                OFFSET -2.275183 -6.463968 -0.768700
                CHANNELS 3 Zrotation Xrotation Yrotation
                End Site
                {
                  OFFSET 0 0 0
                }
              }
              JOINT ThumbLeft
              {
                OFFSET 2.536780 0.042062 -1.244672
                CHANNELS 3 Zrotation Xrotation Yrotation
                End Site
                {
                  OFFSET 0 0 0
                }
              }
            }
          }
        }
      }
      JOINT ShoulderRight
      {
        OFFSET -3.707237 -4.486096 -10.646247
        CHANNELS 3 Zrotation Xrotation Yrotation
        JOINT ElbowRight
        {
          OFFSET -3.844079 -23.530831 -1.815995
          CHANNELS 3 Zrotation Xrotation Yrotation
          JOINT WristRight
          {
            OFFSET -5.806054 -22.479852 3.698693
            CHANNELS 3 Zrotation Xrotation Yrotation
            JOINT HandRight
            {
              OFFSET -1.063736 -6.988193 1.754170
              CHANNELS 3 Zrotation Xrotation Yrotation
              JOINT HandTipRight
              {
                OFFSET -1.272061 -5.504861 1.394934
                CHANNELS 3 Zrotation Xrotation Yrotation
                End Site
                {
                  OFFSET 0 0 0
                }
              }
              JOINT ThumbRight
              {
                OFFSET 2.929010 -1.460462 -0.742459
                CHANNELS 3 Zrotation Xrotation Yrotation
                End Site
                {
                  OFFSET 0 0 0
                }
              }
            }
          }
        }
      }
    }
  }
  JOINT HipLeft
  {
    OFFSET -1.294005 -0.200958 -1.198575
    CHANNELS 3 Zrotation Xrotation Yrotation
    JOINT KneeLeft
    {
      OFFSET 15.610962 -28.277840 11.840889
      CHANNELS 3 Zrotation Xrotation Yrotation
      JOINT AnkleLeft
      {
        OFFSET -6.241371 -34.109273 -8.526499
        CHANNELS 3 Zrotation Xrotation Yrotation
        JOINT FootLeft
        {
          OFFSET -0.115136 -4.257037 7.016050
          CHANNELS 3 Zrotation Xrotation Yrotation
          End Site
          {
            OFFSET 0 0 0
          }
        }
      }
    }
  }
  JOINT HipRight
  {
    OFFSET -1.085672 1.519928 -5.084206
    CHANNELS 3 Zrotation Xrotation Yrotation
    JOINT KneeRight
    {
      OFFSET 1.916221 -28.011091 4.789764
      CHANNELS 3 Zrotation Xrotation Yrotation
      JOINT AnkleRight
      {
        OFFSET 8.557870 -32.276332 1.201304
        CHANNELS 3 Zrotation Xrotation Yrotation
        JOINT FootRight
        {
          OFFSET -12.545679 -2.662123 -4.356533
          CHANNELS 3 Zrotation Xrotation Yrotation
          End Site
          {
            OFFSET 0 0 0
          }
        }
      }
    }
  }
}
MOTION
Frames: 15
Frame Time: 0.033333
109.762939 67.961308 316.001069 0.075669 4.089221 -78.787254 -0.888396 -0.275071 78.835660 -0.425084 0.244463 0.041576 -6.455534 -1.154304 2.421911 0.000000 0.000000 0.000000 1.698739 -4.564073 -1.309710 -1.005353 3.527183 0.912782 3.511559 21.691008 -9.579821 -7.317344 -22.687737 5.553199 0.000000 0.000000 0.000000 0.000000 0.000000 0.000000 0.608098 -1.363845 -0.705757 0.540131 -0.468287 -0.180096 -1.040518 1.515046 -0.132021 -3.926053 0.505320 -1.652116 0.000000 0.000000 0.000000 0.000000 0.000000 0.000000 1.545224 -6.129333 77.008604 20.690463 -9.412416 0.966012 -25.792809 50.509824 -19.081066 0.000000 0.000000 0.000000 0.489312 0.169072 79.101895 -1.563406 -4.259348 -0.614279 87.090078 -6.862248 36.540368 0.000000 0.000000 0.000000
109.856265 68.306854 315.870742 -0.008432 4.785817 -84.557883 -0.862889 -0.415869 84.611670 -0.374977 0.189411 0.050311 -7.810495 -1.113976 2.857225 0.000000 0.000000 0.000000 1.836201 -5.151093 -1.381158 -1.111811 4.200493 0.928220 4.498190 22.254943 -10.029829 -9.075174 -24.114179 5.171022 0.000000 0.000000 0.000000 0.000000 0.000000 0.000000 0.198862 -1.413849 -0.803652 1.040280 -0.657859 -0.203337 -1.588377 1.212449 -0.200859 -4.124810 1.018915 -1.816022 0.000000 0.000000 0.000000 0.000000 0.000000 0.000000 0.201916 -7.965951 82.951037 27.349274 -17.561412 3.181332 -32.576506 70.536898 -17.655715 0.000000 0.000000 0.000000 0.165209 0.184582 84.918922 -1.568676 -5.380748 -0.729465 61.395228 -11.599935 22.194807 0.000000 0.000000 0.000000
109.943566 68.625756 315.749332 -0.084801 5.390526 -86.656186 -0.723549 -0.477929 86.715567 -0.341568 0.135250 0.055628 -8.908834 -0.864894 3.236552 0.000000 0.000000 0.000000 2.006980 -5.703967 -1.466714 -1.246812 4.920955 0.977416 5.447346 22.032999 -10.062209 -10.345277 -24.717703 4.758713 0.000000 0.000000 0.000000 0.000000 0.000000 0.000000 -0.117142 -1.326561 -0.887893 1.430016 -0.791202 -0.224997 -2.023760 1.043944 -0.265134 -2.371487 -0.629109 -1.003747 0.000000 0.000000 0.000000 0.000000 0.000000 0.000000 -2.027334 -9.892570 85.475746 35.408237 -29.590576 8.137045 -169.218225 85.447344 114.841248 0.000000 0.000000 0.000000 -0.068911 0.263138 87.080533 -1.710939 -6.398636 -0.877843 50.604095 -11.577118 15.413464 0.000000 0.000000 0.000000
110.000297 68.910893 315.649507 -0.165060 5.857142 -87.947774 -0.532126 -0.509099 88.012202 -0.348758 0.085797 0.053960 -9.590213 -0.271621 3.568115 0.000000 0.000000 0.000000 2.239659 -6.115555 -1.569561 -1.385859 5.561002 1.063335 7.009500 21.435568 -9.828226 -13.054850 -24.911434 3.684065 0.000000 0.000000 0.000000 0.000000 0.000000 0.000000 -0.278741 -1.152777 -0.946816 1.687302 -0.735800 -0.282428 -2.322488 1.633648 -0.389882 -0.903452 -0.940726 -0.587078 0.000000 0.000000 0.000000 0.000000 0.000000 0.000000 -3.567088 -10.632575 87.450917 43.659049 -40.743205 15.033740 163.078754 71.625476 136.494599 0.000000 0.000000 0.000000 -0.295091 0.443240 88.452557 -1.901657 -7.311153 -1.042628 28.949545 -7.540566 8.278920 0.000000 0.000000 0.000000
110.055173 69.112108 315.584027 -0.194620 6.164734 -89.055826 -0.414616 -0.517055 89.124099 -0.366960 0.080308 0.053713 -9.977192 0.044169 3.747326 0.000000 0.000000 0.000000 2.458419 -6.444353 -1.731326 -1.533798 6.075944 1.210315 8.471571 21.121082 -9.687386 -14.445777 -25.045118 3.066623 0.000000 0.000000 0.000000 0.000000 0.000000 0.000000 -0.352640 -1.046890 -0.994955 1.771189 -0.603844 -0.352997 -2.724732 2.447522 -0.577559 0.337262 -1.990063 -0.070241 0.000000 0.000000 0.000000 0.000000 0.000000 0.000000 -4.803158 -12.380870 88.458862 53.444405 -46.270657 21.803038 163.557874 66.774729 131.682455 0.000000 0.000000 0.000000 -0.506003 0.589045 89.630171 -2.040206 -8.102375 -1.202117 19.917480 -4.892577 6.374572 0.000000 0.000000 0.000000
110.142381 69.157951 315.578985 -0.181695 6.306873 -90.028567 -0.449489 -0.540970 90.097468 -0.393903 0.084030 0.053280 -9.783069 -0.325430 3.629965 0.000000 0.000000 0.000000 2.630853 -6.667127 -1.880435 -1.647587 6.426861 1.344269 9.646412 20.882743 -9.567470 -15.870647 -24.463939 2.268082 0.000000 0.000000 0.000000 0.000000 0.000000 0.000000 -0.233605 -0.955060 -1.043703 1.532760 -0.527748 -0.428233 -2.395043 3.397594 -0.591938 1.309973 -5.288545 0.896266 0.000000 0.000000 0.000000 0.000000 0.000000 0.000000 -6.191608 -13.082242 89.957558 55.074432 -50.658495 25.181708 168.921309 68.241037 130.290175 0.000000 0.000000 0.000000 -0.568317 0.636765 90.632506 -2.081438 -8.516390 -1.294155 23.038371 -5.530030 8.502914 0.000000 0.000000 0.000000
110.301110 69.182165 315.585157 -0.050830 6.337196 -91.382136 -0.390406 -0.601202 91.442306 -0.397450 -0.038718 0.050065 -9.728878 -0.329864 3.587793 0.000000 0.000000 0.000000 2.656775 -6.509490 -2.012052 -1.706749 6.484262 1.462228 10.741190 20.879897 -9.512009 -14.685224 -24.662764 2.632759 0.000000 0.000000 0.000000 0.000000 0.000000 0.000000 -0.080025 -0.592095 -1.083532 1.215762 -0.452606 -0.482461 -1.721160 4.138271 -0.486574 2.404086 -7.075007 1.696687 0.000000 0.000000 0.000000 0.000000 0.000000 0.000000 -6.389445 -13.858032 91.286955 49.158151 -49.729401 21.654617 -138.709959 81.320368 88.615781 0.000000 0.000000 0.000000 -0.782033 0.380509 91.962627 -1.899353 -8.914093 -1.324087 21.294933 -4.941555 8.323669 0.000000 0.000000 0.000000
110.524315 69.122246 315.632441 0.150992 6.191348 -92.082324 -0.268484 -0.688531 92.126326 -0.358123 -0.226713 0.047141 -9.734953 -0.048377 3.593377 0.000000 0.000000 0.000000 2.627854 -6.158793 -2.152393 -1.768835 6.479933 1.597229 10.967444 20.945750 -9.506008 -13.011386 -24.353313 3.120937 0.000000 0.000000 0.000000 0.000000 0.000000 0.000000 0.005943 0.028240 -1.113889 0.992274 -0.388316 -0.507011 -0.830512 4.538826 -0.277531 0.610373 -9.667291 1.561615 0.000000 0.000000 0.000000 0.000000 0.000000 0.000000 -5.967430 -14.262373 91.683424 40.260533 -44.807994 15.420928 -36.364695 59.932410 -0.828412 0.000000 0.000000 0.000000 -1.160334 -0.133844 92.585876 -1.458780 -9.306190 -1.291673 26.294054 -6.051453 10.326794 0.000000 0.000000 0.000000
110.727894 69.035035 315.694363 0.355796 5.943569 -92.908817 0.019765 -0.693064 92.941832 -0.284944 -0.434825 0.046549 -10.098183 0.161968 3.665299 0.000000 0.000000 0.000000 2.565637 -5.708978 -2.348784 -1.872793 6.491338 1.797497 10.290118 21.620253 -9.843273 -9.124203 -24.397161 4.586714 0.000000 0.000000 0.000000 0.000000 0.000000 0.000000 -0.187052 0.875488 -1.132106 1.388642 -0.379767 -0.413086 0.130891 5.128506 -0.074868 -0.545444 -10.041510 1.226504 0.000000 0.000000 0.000000 0.000000 0.000000 0.000000 -6.681684 -16.894690 91.460939 41.216976 -40.418020 13.853519 -27.087635 38.255670 -1.183501 0.000000 0.000000 0.000000 -1.526061 -0.654421 93.327770 -1.463410 -9.494477 -1.304108 41.233331 -8.820287 14.426463 0.000000 0.000000 0.000000
110.977649 68.958238 315.817068 0.595851 5.576685 -93.752751 0.349075 -0.684500 93.775376 -0.189838 -0.634260 0.047985 -10.487619 0.375905 3.734118 0.000000 0.000000 0.000000 2.418144 -5.227474 -2.493804 -1.962820 6.537164 1.950765 9.526293 21.612716 -9.785147 -7.620267 -22.939179 4.729516 0.000000 0.000000 0.000000 0.000000 0.000000 0.000000 0.334502 1.691505 -1.160892 0.694308 -0.252390 -0.391664 1.649286 4.674144 0.428124 -2.045316 -7.041045 0.082132 0.000000 0.000000 0.000000 0.000000 0.000000 0.000000 -6.752581 -18.905503 91.282692 39.700758 -34.122820 11.153757 -20.295817 20.541208 0.887691 0.000000 0.000000 0.000000 -2.107205 -1.357786 94.057612 -1.001947 -9.899055 -1.259762 51.093499 -9.402651 19.680085 0.000000 0.000000 0.000000
111.221624 68.906276 315.985845 0.828248 5.104599 -93.416315 0.682565 -0.686478 93.430696 -0.103250 -0.810633 0.046495 -10.984217 0.116082 3.780272 0.000000 0.000000 0.000000 2.351876 -4.729268 -2.686009 -2.083905 6.553904 2.167137 8.405147 22.354888 -10.102283 -6.860666 -22.474034 4.942391 0.000000 0.000000 0.000000 0.000000 0.000000 0.000000 0.807173 2.484135 -1.179729 0.048234 0.041803 -0.408857 3.250016 4.234809 0.973422 -4.689518 -4.341359 -1.453319 0.000000 0.000000 0.000000 0.000000 0.000000 0.000000 -6.730202 -20.468117 89.778243 38.684306 -26.935836 8.886427 -15.623155 7.386658 3.962169 0.000000 0.000000 0.000000 -3.061267 -2.103581 93.598290 -0.388614 -10.226634 -1.110259 58.265103 -9.090702 24.991096 0.000000 0.000000 0.000000
111.445383 68.836102 316.203001 1.050713 4.503013 -92.447947 0.989515 -0.669410 92.459650 -0.013261 -0.938561 0.045672 -11.473256 -0.397937 3.780310 0.000000 0.000000 0.000000 2.314384 -4.227944 -2.939882 -2.240668 6.507354 2.455766 7.155845 22.618108 -10.115505 -5.738510 -21.722086 5.224773 0.000000 0.000000 0.000000 0.000000 0.000000 0.000000 1.069722 3.195287 -1.178352 -0.244751 0.415486 -0.397768 4.665800 3.352660 1.572003 -9.023232 -2.821615 -3.194206 0.000000 0.000000 0.000000 0.000000 0.000000 0.000000 -7.727743 -21.948756 87.856013 39.989230 -24.810446 8.903391 -13.763679 3.824253 6.207815 0.000000 0.000000 0.000000 -4.292757 -2.748320 92.514959 0.120114 -10.714315 -1.002008 60.583099 -9.000374 26.463711 0.000000 0.000000 0.000000
111.583926 68.769037 316.446316 1.172689 3.817229 -91.644904 1.281832 -0.631436 91.658366 0.034341 -1.009160 0.037346 -11.691137 -0.894635 3.747219 0.000000 0.000000 0.000000 2.298743 -3.581366 -3.107819 -2.316872 6.173527 2.675771 5.988809 22.074935 -9.663837 -6.094186 -19.682431 4.591239 0.000000 0.000000 0.000000 0.000000 0.000000 0.000000 1.703782 3.892843 -1.201636 -1.028252 0.718163 -0.407598 6.226483 1.862171 2.340526 -11.448368 0.067173 -4.304446 0.000000 0.000000 0.000000 0.000000 0.000000 0.000000 -10.485447 -24.515971 85.945773 46.350806 -27.285032 11.377516 -16.866944 4.575704 6.230499 0.000000 0.000000 0.000000 -5.644353 -3.112505 91.645471 0.443097 -11.151673 -0.916766 79.645569 -3.204135 41.496427 0.000000 0.000000 0.000000
111.673222 68.697412 316.677605 1.255087 3.068836 -91.112562 1.556797 -0.568508 91.129760 0.047811 -1.028032 0.025643 -11.885890 -0.539544 3.876455 0.000000 0.000000 0.000000 2.372909 -3.178976 -3.269742 -2.432400 5.984439 2.910910 5.344024 21.270937 -9.049985 -6.670980 -19.342448 4.427736 0.000000 0.000000 0.000000 0.000000 0.000000 0.000000 2.255626 4.343140 -1.184000 -1.619413 1.322699 -0.458598 7.248208 0.053682 3.064611 -12.527390 2.666463 -4.815179 0.000000 0.000000 0.000000 0.000000 0.000000 0.000000 -10.506527 -24.133855 85.241209 47.151122 -26.427360 11.308418 -20.579944 8.192799 3.969641 0.000000 0.000000 0.000000 -6.971586 -3.337835 91.071089 0.678230 -11.463362 -0.832859 68.921692 -5.004340 39.014765 0.000000 0.000000 0.000000
111.729894 68.604759 316.923583 1.293270 2.286998 -90.623554 1.665684 -0.514191 90.643829 0.004724 -0.956751 0.012309 -11.174429 0.310535 3.786238 0.000000 0.000000 0.000000 2.500811 -2.885998 -3.392219 -2.516281 5.715522 3.108811 4.297535 19.591442 -8.053920 -7.024115 -17.239226 3.882707 0.000000 0.000000 0.000000 0.000000 0.000000 0.000000 2.927927 4.208777 -1.102534 -2.401784 2.490821 -0.646403 7.866079 -2.757931 3.926766 -12.680826 7.476859 -5.371700 0.000000 0.000000 0.000000 0.000000 0.000000 0.000000 -9.481077 -23.558848 84.311760 45.629943 -22.417450 9.865787 -22.626709 8.852866 1.252701 0.000000 0.000000 0.000000 -8.291088 -3.444834 90.560592 0.846155 -11.704461 -0.753170 66.015326 -3.501693 43.613924 0.000000 0.000000 0.000000
